# xmcd
#
# Track frame offsets:
#       150
#       16238
#       47565
#       85219
#       99319
#       133212
#       166208
#       181741
#       208852
#       232312
#       264243
#       296007
#
# Disc length: 4326 seconds
#
# Revision: 2
# Processed by: cddbd v1.5.1PL0 Copyright (c) Steve Scherf et al.
# Submitted via: WaveLab 4.01
#
DISCID=a310e40c
DTITLE=Various Artist - Dor or Die Multi Maxi CD 2
DYEAR=2003
DGENRE=Trance
TTITLE0=Warp Brother - Cokane (7")
TTITLE1=War Brother - Cokane (Voodoo and Serano Remix)
TTITLE2=War Brother - Power (7")
TTITLE3=Vintage Beat - Sometimes (Radio Edit)
TTITLE4=Vintage Beat - Sometimes (André Visior Remix)
TTITLE5=Vintage Beat - Sometimes (Yanou Remix)
TTITLE6=Akkersson - What I´ve got (Radio Mix)
TTITLE7=Akkersson - What I´ve got (Kosmonova Remix)
TTITLE8=Akkersson - What I´ve got (Extended Mix)
TTITLE9=G.U.M. - This is not a lovesong (Club Mix)
TTITLE10=G.U.M. - This is not a lovesong (Tandu Remix)
TTITLE11=G.U.M. - This is not a lovesong (Sonnet Tribal Mix)
EXTD=
EXTT0=
EXTT1=
EXTT2=
EXTT3=
EXTT4=
EXTT5=
EXTT6=
EXTT7=
EXTT8=
EXTT9=
EXTT10=
EXTT11=
PLAYORDER=
